<svg width="293" height="37" viewBox="0 0 293 37" fill="none" xmlns="http://www.w3.org/2000/svg">
<path d="M15.528 2.4C18.504 2.4 21.08 2.896 23.256 3.888C25.464 4.88 27.16 6.288 28.344 8.112C29.528 9.936 30.12 12.096 30.12 14.592C30.12 17.056 29.528 19.216 28.344 21.072C27.16 22.896 25.464 24.304 23.256 25.296C21.08 26.256 18.504 26.736 15.528 26.736H8.76V36H0.984V2.4H15.528ZM15.096 20.4C17.432 20.4 19.208 19.904 20.424 18.912C21.64 17.888 22.248 16.448 22.248 14.592C22.248 12.704 21.64 11.264 20.424 10.272C19.208 9.248 17.432 8.736 15.096 8.736H8.76V20.4H15.096Z" fill="#1177FF"/>
<path d="M58.8443 18.672H65.9483V32.304C64.1243 33.68 62.0123 34.736 59.6123 35.472C57.2123 36.208 54.7963 36.576 52.3643 36.576C48.8763 36.576 45.7403 35.84 42.9563 34.368C40.1723 32.864 37.9803 30.8 36.3803 28.176C34.8123 25.52 34.0283 22.528 34.0283 19.2C34.0283 15.872 34.8123 12.896 36.3803 10.272C37.9803 7.616 40.1883 5.552 43.0043 4.08C45.8203 2.576 48.9883 1.824 52.5083 1.824C55.4523 1.824 58.1243 2.32 60.5243 3.312C62.9243 4.304 64.9403 5.744 66.5723 7.632L61.5803 12.24C59.1803 9.712 56.2843 8.448 52.8923 8.448C50.7483 8.448 48.8443 8.896 47.1803 9.792C45.5163 10.688 44.2203 11.952 43.2923 13.584C42.3643 15.216 41.9003 17.088 41.9003 19.2C41.9003 21.28 42.3643 23.136 43.2923 24.768C44.2203 26.4 45.5003 27.68 47.1323 28.608C48.7963 29.504 50.6843 29.952 52.7963 29.952C55.0363 29.952 57.0523 29.472 58.8443 28.512V18.672Z" fill="#2E3743"/>
<path d="M88.3395 9.792C91.5395 9.792 94.1155 10.752 96.0675 12.672C98.0515 14.592 99.0435 17.44 99.0435 21.216V36H91.5555V22.368C91.5555 20.32 91.1075 18.8 90.2115 17.808C89.3155 16.784 88.0195 16.272 86.3235 16.272C84.4355 16.272 82.9315 16.864 81.8115 18.048C80.6915 19.2 80.1315 20.928 80.1315 23.232V36H72.6435V0.383998H80.1315V12.864C81.1235 11.872 82.3235 11.12 83.7315 10.608C85.1395 10.064 86.6755 9.792 88.3395 9.792ZM131.847 10.176V36H124.743V32.928C123.751 34.048 122.567 34.912 121.191 35.52C119.815 36.096 118.327 36.384 116.727 36.384C113.335 36.384 110.647 35.408 108.663 33.456C106.679 31.504 105.687 28.608 105.687 24.768V10.176H113.175V23.664C113.175 27.824 114.919 29.904 118.407 29.904C120.199 29.904 121.639 29.328 122.727 28.176C123.815 26.992 124.359 25.248 124.359 22.944V10.176H131.847ZM154.048 9.792C156.448 9.792 158.624 10.352 160.576 11.472C162.56 12.56 164.112 14.112 165.232 16.128C166.352 18.112 166.912 20.432 166.912 23.088C166.912 25.744 166.352 28.08 165.232 30.096C164.112 32.08 162.56 33.632 160.576 34.752C158.624 35.84 156.448 36.384 154.048 36.384C150.496 36.384 147.792 35.264 145.936 33.024V36H138.784V0.383998H146.272V12.912C148.16 10.832 150.752 9.792 154.048 9.792ZM152.752 30.24C154.672 30.24 156.24 29.6 157.456 28.32C158.704 27.008 159.328 25.264 159.328 23.088C159.328 20.912 158.704 19.184 157.456 17.904C156.24 16.592 154.672 15.936 152.752 15.936C150.832 15.936 149.248 16.592 148 17.904C146.784 19.184 146.176 20.912 146.176 23.088C146.176 25.264 146.784 27.008 148 28.32C149.248 29.6 150.832 30.24 152.752 30.24ZM223.327 13.584C224.223 12.336 225.423 11.392 226.927 10.752C228.463 10.112 230.223 9.792 232.207 9.792V16.704C231.375 16.64 230.815 16.608 230.527 16.608C228.383 16.608 226.703 17.216 225.487 18.432C224.271 19.616 223.663 21.408 223.663 23.808V36H216.175V10.176H223.327V13.584ZM261.721 23.184C261.721 23.28 261.673 23.952 261.577 25.2H242.041C242.393 26.8 243.225 28.064 244.537 28.992C245.849 29.92 247.481 30.384 249.433 30.384C250.777 30.384 251.961 30.192 252.985 29.808C254.041 29.392 255.017 28.752 255.913 27.888L259.897 32.208C257.465 34.992 253.913 36.384 249.241 36.384C246.329 36.384 243.753 35.824 241.513 34.704C239.273 33.552 237.545 31.968 236.329 29.952C235.113 27.936 234.505 25.648 234.505 23.088C234.505 20.56 235.097 18.288 236.281 16.272C237.497 14.224 239.145 12.64 241.225 11.52C243.337 10.368 245.689 9.792 248.281 9.792C250.809 9.792 253.097 10.336 255.145 11.424C257.193 12.512 258.793 14.08 259.945 16.128C261.129 18.144 261.721 20.496 261.721 23.184ZM248.329 15.456C246.633 15.456 245.209 15.936 244.057 16.896C242.905 17.856 242.201 19.168 241.945 20.832H254.665C254.409 19.2 253.705 17.904 252.553 16.944C251.401 15.952 249.993 15.456 248.329 15.456ZM292.002 23.184C292.002 23.28 291.954 23.952 291.858 25.2H272.322C272.674 26.8 273.506 28.064 274.818 28.992C276.13 29.92 277.762 30.384 279.714 30.384C281.058 30.384 282.242 30.192 283.266 29.808C284.322 29.392 285.298 28.752 286.194 27.888L290.178 32.208C287.746 34.992 284.194 36.384 279.522 36.384C276.61 36.384 274.034 35.824 271.794 34.704C269.554 33.552 267.826 31.968 266.61 29.952C265.394 27.936 264.786 25.648 264.786 23.088C264.786 20.56 265.378 18.288 266.562 16.272C267.778 14.224 269.426 12.64 271.506 11.52C273.618 10.368 275.97 9.792 278.562 9.792C281.09 9.792 283.378 10.336 285.426 11.424C287.474 12.512 289.074 14.08 290.226 16.128C291.41 18.144 292.002 20.496 292.002 23.184ZM278.61 15.456C276.914 15.456 275.49 15.936 274.338 16.896C273.186 17.856 272.482 19.168 272.226 20.832H284.946C284.69 19.2 283.986 17.904 282.834 16.944C281.682 15.952 280.274 15.456 278.61 15.456Z" fill="#171D26"/>
<path d="M193.823 8.64V17.52H209.375V23.76H193.823V36H186.047V2.4H211.439V8.64H193.823Z" fill="#FF7F26"/>
</svg>
