<svg width="147" height="19" viewBox="0 0 147 19" fill="none" xmlns="http://www.w3.org/2000/svg">
<path d="M8.264 1.2C9.752 1.2 11.04 1.448 12.128 1.944C13.232 2.44 14.08 3.144 14.672 4.056C15.264 4.968 15.56 6.048 15.56 7.296C15.56 8.528 15.264 9.608 14.672 10.536C14.08 11.448 13.232 12.152 12.128 12.648C11.04 13.128 9.752 13.368 8.264 13.368H4.88V18H0.992V1.2H8.264ZM8.048 10.2C9.216 10.2 10.104 9.952 10.712 9.456C11.32 8.944 11.624 8.224 11.624 7.296C11.624 6.352 11.32 5.632 10.712 5.136C10.104 4.624 9.216 4.368 8.048 4.368H4.88V10.2H8.048Z" fill="#1177FF"/>
<path d="M29.9221 9.336H33.4741V16.152C32.5621 16.84 31.5061 17.368 30.3061 17.736C29.1061 18.104 27.8981 18.288 26.6821 18.288C24.9381 18.288 23.3701 17.92 21.9781 17.184C20.5861 16.432 19.4901 15.4 18.6901 14.088C17.9061 12.76 17.5141 11.264 17.5141 9.6C17.5141 7.936 17.9061 6.448 18.6901 5.136C19.4901 3.808 20.5941 2.776 22.0021 2.04C23.4101 1.288 24.9941 0.912 26.7541 0.912C28.2261 0.912 29.5621 1.16 30.7621 1.656C31.9621 2.152 32.9701 2.872 33.7861 3.816L31.2901 6.12C30.0901 4.856 28.6421 4.224 26.9461 4.224C25.8741 4.224 24.9221 4.448 24.0901 4.896C23.2581 5.344 22.6101 5.976 22.1461 6.792C21.6821 7.608 21.4501 8.544 21.4501 9.6C21.4501 10.64 21.6821 11.568 22.1461 12.384C22.6101 13.2 23.2501 13.84 24.0661 14.304C24.8981 14.752 25.8421 14.976 26.8981 14.976C28.0181 14.976 29.0261 14.736 29.9221 14.256V9.336Z" fill="#2E3743"/>
<path d="M44.6698 4.896C46.2698 4.896 47.5578 5.376 48.5338 6.336C49.5258 7.296 50.0218 8.72 50.0218 10.608V18H46.2778V11.184C46.2778 10.16 46.0538 9.4 45.6058 8.904C45.1578 8.392 44.5098 8.136 43.6618 8.136C42.7178 8.136 41.9658 8.432 41.4058 9.024C40.8458 9.6 40.5658 10.464 40.5658 11.616V18H36.8218V0.191999H40.5658V6.432C41.0618 5.936 41.6618 5.56 42.3658 5.304C43.0698 5.032 43.8378 4.896 44.6698 4.896ZM66.4235 5.088V18H62.8715V16.464C62.3755 17.024 61.7835 17.456 61.0955 17.76C60.4075 18.048 59.6635 18.192 58.8635 18.192C57.1675 18.192 55.8235 17.704 54.8315 16.728C53.8395 15.752 53.3435 14.304 53.3435 12.384V5.088H57.0875V11.832C57.0875 13.912 57.9595 14.952 59.7035 14.952C60.5995 14.952 61.3195 14.664 61.8635 14.088C62.4075 13.496 62.6795 12.624 62.6795 11.472V5.088H66.4235ZM77.5241 4.896C78.7241 4.896 79.8121 5.176 80.7881 5.736C81.7801 6.28 82.5561 7.056 83.1161 8.064C83.6761 9.056 83.9561 10.216 83.9561 11.544C83.9561 12.872 83.6761 14.04 83.1161 15.048C82.5561 16.04 81.7801 16.816 80.7881 17.376C79.8121 17.92 78.7241 18.192 77.5241 18.192C75.7481 18.192 74.3961 17.632 73.4681 16.512V18H69.8921V0.191999H73.6361V6.456C74.5801 5.416 75.8761 4.896 77.5241 4.896ZM76.8761 15.12C77.8361 15.12 78.6201 14.8 79.2281 14.16C79.8521 13.504 80.1641 12.632 80.1641 11.544C80.1641 10.456 79.8521 9.592 79.2281 8.952C78.6201 8.296 77.8361 7.968 76.8761 7.968C75.9161 7.968 75.1241 8.296 74.5001 8.952C73.8921 9.592 73.5881 10.456 73.5881 11.544C73.5881 12.632 73.8921 13.504 74.5001 14.16C75.1241 14.8 75.9161 15.12 76.8761 15.12ZM112.163 6.792C112.611 6.168 113.211 5.696 113.963 5.376C114.731 5.056 115.611 4.896 116.603 4.896V8.352C116.187 8.32 115.907 8.304 115.763 8.304C114.691 8.304 113.851 8.608 113.243 9.216C112.635 9.808 112.331 10.704 112.331 11.904V18H108.587V5.088H112.163V6.792ZM131.36 11.592C131.36 11.64 131.336 11.976 131.288 12.6H121.52C121.696 13.4 122.112 14.032 122.768 14.496C123.424 14.96 124.24 15.192 125.216 15.192C125.888 15.192 126.48 15.096 126.992 14.904C127.52 14.696 128.008 14.376 128.456 13.944L130.448 16.104C129.232 17.496 127.456 18.192 125.12 18.192C123.664 18.192 122.376 17.912 121.256 17.352C120.136 16.776 119.272 15.984 118.664 14.976C118.056 13.968 117.752 12.824 117.752 11.544C117.752 10.28 118.048 9.144 118.64 8.136C119.248 7.112 120.072 6.32 121.112 5.76C122.168 5.184 123.344 4.896 124.64 4.896C125.904 4.896 127.048 5.168 128.072 5.712C129.096 6.256 129.896 7.04 130.472 8.064C131.064 9.072 131.36 10.248 131.36 11.592ZM124.664 7.728C123.816 7.728 123.104 7.968 122.528 8.448C121.952 8.928 121.6 9.584 121.472 10.416H127.832C127.704 9.6 127.352 8.952 126.776 8.472C126.2 7.976 125.496 7.728 124.664 7.728ZM146.501 11.592C146.501 11.64 146.477 11.976 146.429 12.6H136.661C136.837 13.4 137.253 14.032 137.909 14.496C138.565 14.96 139.381 15.192 140.357 15.192C141.029 15.192 141.621 15.096 142.133 14.904C142.661 14.696 143.149 14.376 143.597 13.944L145.589 16.104C144.373 17.496 142.597 18.192 140.261 18.192C138.805 18.192 137.517 17.912 136.397 17.352C135.277 16.776 134.413 15.984 133.805 14.976C133.197 13.968 132.893 12.824 132.893 11.544C132.893 10.28 133.189 9.144 133.781 8.136C134.389 7.112 135.213 6.32 136.253 5.76C137.309 5.184 138.485 4.896 139.781 4.896C141.045 4.896 142.189 5.168 143.213 5.712C144.237 6.256 145.037 7.04 145.613 8.064C146.205 9.072 146.501 10.248 146.501 11.592ZM139.805 7.728C138.957 7.728 138.245 7.968 137.669 8.448C137.093 8.928 136.741 9.584 136.613 10.416H142.973C142.845 9.6 142.493 8.952 141.917 8.472C141.341 7.976 140.637 7.728 139.805 7.728Z" fill="#171D26"/>
<path d="M97.4113 4.32V8.76H105.187V11.88H97.4113V18H93.5233V1.2H106.219V4.32H97.4113Z" fill="#FF7F26"/>
</svg>
